<mxfile host="app.diagrams.net" modified="2021-07-20T12:05:59.028Z" agent="5.0 (Macintosh; Intel Mac OS X 10_15_7) AppleWebKit/605.1.15 (KHTML, like Gecko) Version/14.1.1 Safari/605.1.15" etag="df3gH49C4b2h6WpPogOf" version="14.9.0" type="github">
  <diagram id="C5RBs43oDa-KdzZeNtuy" name="Page-1">
    <mxGraphModel dx="1011" dy="736" grid="1" gridSize="10" guides="1" tooltips="1" connect="1" arrows="1" fold="1" page="1" pageScale="1" pageWidth="827" pageHeight="1169" math="0" shadow="0">
      <root>
        <mxCell id="WIyWlLk6GJQsqaUBKTNV-0" />
        <mxCell id="WIyWlLk6GJQsqaUBKTNV-1" parent="WIyWlLk6GJQsqaUBKTNV-0" />
        <mxCell id="O9CxE7nqKKuWHLjGEseC-1" value="" style="rounded=0;whiteSpace=wrap;html=1;" parent="WIyWlLk6GJQsqaUBKTNV-1" vertex="1">
          <mxGeometry x="60" y="315" width="340" height="525" as="geometry" />
        </mxCell>
        <mxCell id="O9CxE7nqKKuWHLjGEseC-0" value="editor_scene_3d_system" style="rounded=0;whiteSpace=wrap;html=1;" parent="WIyWlLk6GJQsqaUBKTNV-1" vertex="1">
          <mxGeometry x="40" y="295" width="170" height="70" as="geometry" />
        </mxCell>
        <mxCell id="O9CxE7nqKKuWHLjGEseC-3" value="" style="rounded=0;whiteSpace=wrap;html=1;" parent="WIyWlLk6GJQsqaUBKTNV-1" vertex="1">
          <mxGeometry x="480" y="330" width="320" height="510" as="geometry" />
        </mxCell>
        <mxCell id="O9CxE7nqKKuWHLjGEseC-4" value="head_3d_system" style="rounded=0;whiteSpace=wrap;html=1;" parent="WIyWlLk6GJQsqaUBKTNV-1" vertex="1">
          <mxGeometry x="460" y="305" width="170" height="70" as="geometry" />
        </mxCell>
        <mxCell id="O9CxE7nqKKuWHLjGEseC-10" style="edgeStyle=orthogonalEdgeStyle;rounded=0;orthogonalLoop=1;jettySize=auto;html=1;exitX=0.5;exitY=1;exitDx=0;exitDy=0;entryX=0.5;entryY=0;entryDx=0;entryDy=0;" parent="WIyWlLk6GJQsqaUBKTNV-1" source="O9CxE7nqKKuWHLjGEseC-6" target="O9CxE7nqKKuWHLjGEseC-8" edge="1">
          <mxGeometry relative="1" as="geometry" />
        </mxCell>
        <mxCell id="O9CxE7nqKKuWHLjGEseC-6" value="职责: 绘制中间3D编辑界面中独有物件：网格、相机平面" style="text;html=1;strokeColor=none;fillColor=none;align=center;verticalAlign=middle;whiteSpace=wrap;rounded=0;" parent="WIyWlLk6GJQsqaUBKTNV-1" vertex="1">
          <mxGeometry x="70" y="375" width="330" height="20" as="geometry" />
        </mxCell>
        <mxCell id="O9CxE7nqKKuWHLjGEseC-8" value="新增职责: 绘制自定义头模" style="text;html=1;strokeColor=none;fillColor=none;align=center;verticalAlign=middle;whiteSpace=wrap;rounded=0;" parent="WIyWlLk6GJQsqaUBKTNV-1" vertex="1">
          <mxGeometry x="70" y="420" width="330" height="20" as="geometry" />
        </mxCell>
        <mxCell id="O9CxE7nqKKuWHLjGEseC-16" style="edgeStyle=orthogonalEdgeStyle;rounded=0;orthogonalLoop=1;jettySize=auto;html=1;exitX=0.5;exitY=1;exitDx=0;exitDy=0;entryX=0.5;entryY=0;entryDx=0;entryDy=0;" parent="WIyWlLk6GJQsqaUBKTNV-1" source="O9CxE7nqKKuWHLjGEseC-14" target="O9CxE7nqKKuWHLjGEseC-15" edge="1">
          <mxGeometry relative="1" as="geometry" />
        </mxCell>
        <mxCell id="O9CxE7nqKKuWHLjGEseC-14" value="update" style="rounded=0;whiteSpace=wrap;html=1;" parent="WIyWlLk6GJQsqaUBKTNV-1" vertex="1">
          <mxGeometry x="576.5" y="440" width="120" height="50" as="geometry" />
        </mxCell>
        <mxCell id="O9CxE7nqKKuWHLjGEseC-29" style="edgeStyle=orthogonalEdgeStyle;rounded=0;orthogonalLoop=1;jettySize=auto;html=1;exitX=0.5;exitY=1;exitDx=0;exitDy=0;entryX=0.5;entryY=0;entryDx=0;entryDy=0;" parent="WIyWlLk6GJQsqaUBKTNV-1" source="O9CxE7nqKKuWHLjGEseC-15" target="O9CxE7nqKKuWHLjGEseC-17" edge="1">
          <mxGeometry relative="1" as="geometry" />
        </mxCell>
        <mxCell id="O9CxE7nqKKuWHLjGEseC-15" value="Face3DComponent发生改变" style="rhombus;whiteSpace=wrap;html=1;" parent="WIyWlLk6GJQsqaUBKTNV-1" vertex="1">
          <mxGeometry x="540" y="530" width="193" height="80" as="geometry" />
        </mxCell>
        <mxCell id="O9CxE7nqKKuWHLjGEseC-33" style="edgeStyle=orthogonalEdgeStyle;rounded=0;orthogonalLoop=1;jettySize=auto;html=1;exitX=0.5;exitY=1;exitDx=0;exitDy=0;entryX=0.5;entryY=0;entryDx=0;entryDy=0;" parent="WIyWlLk6GJQsqaUBKTNV-1" source="O9CxE7nqKKuWHLjGEseC-17" target="O9CxE7nqKKuWHLjGEseC-30" edge="1">
          <mxGeometry relative="1" as="geometry" />
        </mxCell>
        <mxCell id="O9CxE7nqKKuWHLjGEseC-17" value="重建head_helper" style="rounded=0;whiteSpace=wrap;html=1;" parent="WIyWlLk6GJQsqaUBKTNV-1" vertex="1">
          <mxGeometry x="576.5" y="640" width="120" height="60" as="geometry" />
        </mxCell>
        <mxCell id="O9CxE7nqKKuWHLjGEseC-18" value="HeadHelper" style="swimlane;fontStyle=0;childLayout=stackLayout;horizontal=1;startSize=26;horizontalStack=0;resizeParent=1;resizeParentMax=0;resizeLast=0;collapsible=1;marginBottom=0;" parent="WIyWlLk6GJQsqaUBKTNV-1" vertex="1">
          <mxGeometry x="420" y="160" width="160" height="130" as="geometry" />
        </mxCell>
        <mxCell id="O9CxE7nqKKuWHLjGEseC-19" value="IndexBuffer (实例化时确定）" style="text;strokeColor=none;fillColor=none;align=left;verticalAlign=top;spacingLeft=4;spacingRight=4;overflow=hidden;rotatable=0;points=[[0,0.5],[1,0.5]];portConstraint=eastwest;" parent="O9CxE7nqKKuWHLjGEseC-18" vertex="1">
          <mxGeometry y="26" width="160" height="26" as="geometry" />
        </mxCell>
        <mxCell id="O9CxE7nqKKuWHLjGEseC-20" value="VertexBuffer(实例化时确定）" style="text;strokeColor=none;fillColor=none;align=left;verticalAlign=top;spacingLeft=4;spacingRight=4;overflow=hidden;rotatable=0;points=[[0,0.5],[1,0.5]];portConstraint=eastwest;" parent="O9CxE7nqKKuWHLjGEseC-18" vertex="1">
          <mxGeometry y="52" width="160" height="26" as="geometry" />
        </mxCell>
        <mxCell id="O9CxE7nqKKuWHLjGEseC-21" value="QuatBuffer(实例化时确定）" style="text;strokeColor=none;fillColor=none;align=left;verticalAlign=top;spacingLeft=4;spacingRight=4;overflow=hidden;rotatable=0;points=[[0,0.5],[1,0.5]];portConstraint=eastwest;" parent="O9CxE7nqKKuWHLjGEseC-18" vertex="1">
          <mxGeometry y="78" width="160" height="26" as="geometry" />
        </mxCell>
        <mxCell id="O9CxE7nqKKuWHLjGEseC-32" value="TTHeadData（运行时改变）" style="text;strokeColor=none;fillColor=none;align=left;verticalAlign=top;spacingLeft=4;spacingRight=4;overflow=hidden;rotatable=0;points=[[0,0.5],[1,0.5]];portConstraint=eastwest;" parent="O9CxE7nqKKuWHLjGEseC-18" vertex="1">
          <mxGeometry y="104" width="160" height="26" as="geometry" />
        </mxCell>
        <mxCell id="O9CxE7nqKKuWHLjGEseC-22" value="Face3DComponent" style="swimlane;fontStyle=0;childLayout=stackLayout;horizontal=1;startSize=26;horizontalStack=0;resizeParent=1;resizeParentMax=0;resizeLast=0;collapsible=1;marginBottom=0;" parent="WIyWlLk6GJQsqaUBKTNV-1" vertex="1">
          <mxGeometry x="150" y="130" width="140" height="104" as="geometry" />
        </mxCell>
        <mxCell id="O9CxE7nqKKuWHLjGEseC-23" value="string 自定义头模文件" style="text;strokeColor=none;fillColor=none;align=left;verticalAlign=top;spacingLeft=4;spacingRight=4;overflow=hidden;rotatable=0;points=[[0,0.5],[1,0.5]];portConstraint=eastwest;" parent="O9CxE7nqKKuWHLjGEseC-22" vertex="1">
          <mxGeometry y="26" width="140" height="26" as="geometry" />
        </mxCell>
        <mxCell id="O9CxE7nqKKuWHLjGEseC-24" value="enum 头模选择" style="text;strokeColor=none;fillColor=none;align=left;verticalAlign=top;spacingLeft=4;spacingRight=4;overflow=hidden;rotatable=0;points=[[0,0.5],[1,0.5]];portConstraint=eastwest;" parent="O9CxE7nqKKuWHLjGEseC-22" vertex="1">
          <mxGeometry y="52" width="140" height="26" as="geometry" />
        </mxCell>
        <mxCell id="O9CxE7nqKKuWHLjGEseC-25" value="*head_helper" style="text;strokeColor=none;fillColor=none;align=left;verticalAlign=top;spacingLeft=4;spacingRight=4;overflow=hidden;rotatable=0;points=[[0,0.5],[1,0.5]];portConstraint=eastwest;" parent="O9CxE7nqKKuWHLjGEseC-22" vertex="1">
          <mxGeometry y="78" width="140" height="26" as="geometry" />
        </mxCell>
        <mxCell id="O9CxE7nqKKuWHLjGEseC-26" style="edgeStyle=orthogonalEdgeStyle;rounded=0;orthogonalLoop=1;jettySize=auto;html=1;exitX=1;exitY=0.5;exitDx=0;exitDy=0;entryX=-0.014;entryY=0.163;entryDx=0;entryDy=0;entryPerimeter=0;" parent="WIyWlLk6GJQsqaUBKTNV-1" source="O9CxE7nqKKuWHLjGEseC-25" target="O9CxE7nqKKuWHLjGEseC-18" edge="1">
          <mxGeometry relative="1" as="geometry" />
        </mxCell>
        <mxCell id="O9CxE7nqKKuWHLjGEseC-28" value="HeadHelper，绘制遮挡头模。&lt;br&gt;通过导入相对应的txt文件生成相应的buffer。" style="text;html=1;strokeColor=none;fillColor=none;align=center;verticalAlign=middle;whiteSpace=wrap;rounded=0;" parent="WIyWlLk6GJQsqaUBKTNV-1" vertex="1">
          <mxGeometry x="580" y="190" width="220" height="58" as="geometry" />
        </mxCell>
        <mxCell id="O9CxE7nqKKuWHLjGEseC-30" value="更新head_helper中的&lt;br&gt;TTHeadData（ib和vb）" style="rounded=0;whiteSpace=wrap;html=1;" parent="WIyWlLk6GJQsqaUBKTNV-1" vertex="1">
          <mxGeometry x="555" y="750" width="163" height="60" as="geometry" />
        </mxCell>
        <mxCell id="O9CxE7nqKKuWHLjGEseC-36" style="edgeStyle=orthogonalEdgeStyle;rounded=0;orthogonalLoop=1;jettySize=auto;html=1;exitX=0.5;exitY=1;exitDx=0;exitDy=0;entryX=0.5;entryY=0;entryDx=0;entryDy=0;" parent="WIyWlLk6GJQsqaUBKTNV-1" source="O9CxE7nqKKuWHLjGEseC-34" target="O9CxE7nqKKuWHLjGEseC-35" edge="1">
          <mxGeometry relative="1" as="geometry" />
        </mxCell>
        <mxCell id="O9CxE7nqKKuWHLjGEseC-34" value="update" style="rounded=0;whiteSpace=wrap;html=1;" parent="WIyWlLk6GJQsqaUBKTNV-1" vertex="1">
          <mxGeometry x="170" y="470" width="120" height="50" as="geometry" />
        </mxCell>
        <mxCell id="O9CxE7nqKKuWHLjGEseC-38" style="edgeStyle=orthogonalEdgeStyle;rounded=0;orthogonalLoop=1;jettySize=auto;html=1;exitX=0.5;exitY=1;exitDx=0;exitDy=0;" parent="WIyWlLk6GJQsqaUBKTNV-1" source="O9CxE7nqKKuWHLjGEseC-35" target="O9CxE7nqKKuWHLjGEseC-37" edge="1">
          <mxGeometry relative="1" as="geometry" />
        </mxCell>
        <mxCell id="O9CxE7nqKKuWHLjGEseC-35" value="Face3DComponent中&lt;br&gt;head_helper指针发生改变" style="rhombus;whiteSpace=wrap;html=1;" parent="WIyWlLk6GJQsqaUBKTNV-1" vertex="1">
          <mxGeometry x="131.75" y="550" width="196.5" height="80" as="geometry" />
        </mxCell>
        <mxCell id="O9CxE7nqKKuWHLjGEseC-40" style="edgeStyle=orthogonalEdgeStyle;rounded=0;orthogonalLoop=1;jettySize=auto;html=1;exitX=0.5;exitY=1;exitDx=0;exitDy=0;entryX=0.5;entryY=0;entryDx=0;entryDy=0;" parent="WIyWlLk6GJQsqaUBKTNV-1" source="O9CxE7nqKKuWHLjGEseC-37" target="O9CxE7nqKKuWHLjGEseC-39" edge="1">
          <mxGeometry relative="1" as="geometry" />
        </mxCell>
        <mxCell id="O9CxE7nqKKuWHLjGEseC-37" value="读取head_helpe中的VertexBuffer、IndexBuffer和QuatBuffer" style="rounded=0;whiteSpace=wrap;html=1;" parent="WIyWlLk6GJQsqaUBKTNV-1" vertex="1">
          <mxGeometry x="154.13" y="670" width="151.75" height="60" as="geometry" />
        </mxCell>
        <mxCell id="O9CxE7nqKKuWHLjGEseC-39" value="在3D编辑界面中生成mesh预览" style="rounded=0;whiteSpace=wrap;html=1;" parent="WIyWlLk6GJQsqaUBKTNV-1" vertex="1">
          <mxGeometry x="154.13" y="760" width="151.75" height="60" as="geometry" />
        </mxCell>
        <mxCell id="O9CxE7nqKKuWHLjGEseC-42" value="" style="rounded=0;whiteSpace=wrap;html=1;fillColor=none;strokeColor=#FF3333;" parent="WIyWlLk6GJQsqaUBKTNV-1" vertex="1">
          <mxGeometry x="70" y="530" width="300" height="300" as="geometry" />
        </mxCell>
        <mxCell id="O9CxE7nqKKuWHLjGEseC-41" value="职责: 更新头模点位和矩阵变换" style="text;html=1;strokeColor=none;fillColor=none;align=center;verticalAlign=middle;whiteSpace=wrap;rounded=0;" parent="WIyWlLk6GJQsqaUBKTNV-1" vertex="1">
          <mxGeometry x="480" y="380" width="330" height="20" as="geometry" />
        </mxCell>
        <mxCell id="O9CxE7nqKKuWHLjGEseC-43" value="新增内容" style="text;html=1;strokeColor=none;fillColor=none;align=center;verticalAlign=middle;whiteSpace=wrap;rounded=0;fontColor=#FF0000;" parent="WIyWlLk6GJQsqaUBKTNV-1" vertex="1">
          <mxGeometry x="80" y="650" width="50" height="20" as="geometry" />
        </mxCell>
        <mxCell id="jnxm_U-zidSxs9HYSOZe-0" value="Face3DComponent" style="rounded=0;whiteSpace=wrap;html=1;" vertex="1" parent="WIyWlLk6GJQsqaUBKTNV-1">
          <mxGeometry x="70" y="990" width="120" height="60" as="geometry" />
        </mxCell>
        <mxCell id="jnxm_U-zidSxs9HYSOZe-1" value="FaceMeshComponent（顶点变更）" style="rounded=0;whiteSpace=wrap;html=1;" vertex="1" parent="WIyWlLk6GJQsqaUBKTNV-1">
          <mxGeometry x="310" y="910" width="200" height="60" as="geometry" />
        </mxCell>
        <mxCell id="jnxm_U-zidSxs9HYSOZe-2" value="MeshRendererV2Component（材质系统）&lt;br&gt;变更头模节点的材质" style="rounded=0;whiteSpace=wrap;html=1;" vertex="1" parent="WIyWlLk6GJQsqaUBKTNV-1">
          <mxGeometry x="310" y="1000" width="240" height="60" as="geometry" />
        </mxCell>
        <mxCell id="jnxm_U-zidSxs9HYSOZe-3" value="自定义头模（面片变更）" style="rounded=0;whiteSpace=wrap;html=1;" vertex="1" parent="WIyWlLk6GJQsqaUBKTNV-1">
          <mxGeometry x="310" y="1090" width="180" height="60" as="geometry" />
        </mxCell>
        <mxCell id="jnxm_U-zidSxs9HYSOZe-4" value="头模预览技术方案" style="text;html=1;align=center;verticalAlign=middle;resizable=0;points=[];autosize=1;strokeColor=none;strokeWidth=6;fontSize=21;" vertex="1" parent="WIyWlLk6GJQsqaUBKTNV-1">
          <mxGeometry x="25" y="65" width="180" height="30" as="geometry" />
        </mxCell>
        <mxCell id="jnxm_U-zidSxs9HYSOZe-5" value="头模重构" style="text;html=1;align=center;verticalAlign=middle;resizable=0;points=[];autosize=1;strokeColor=none;strokeWidth=6;fontSize=21;" vertex="1" parent="WIyWlLk6GJQsqaUBKTNV-1">
          <mxGeometry x="40" y="870" width="100" height="30" as="geometry" />
        </mxCell>
      </root>
    </mxGraphModel>
  </diagram>
</mxfile>
